<svg id="visual" viewBox="0 0 4000 2500" width="4000" height="2500" xmlns="http://www.w3.org/2000/svg" xmlns:xlink="http://www.w3.org/1999/xlink" version="1.1"><g stroke-width="1" stroke-linejoin="bevel"><path d="M2007 1323.2L2055 1143.8L1821 1153.8Z" fill="#0d1665" stroke="#0d1665"></path><path d="M2055 1143.8L1975 1006.5L1821 1153.8Z" fill="#26199c" stroke="#26199c"></path><path d="M1821 1153.8L1761 1332.2L2007 1323.2Z" fill="#1c1989" stroke="#1c1989"></path><path d="M2007 1323.2L2242 1194.8L2055 1143.8Z" fill="#26199c" stroke="#26199c"></path><path d="M2055 1143.8L2196 972.5L1975 1006.5Z" fill="#0d1665" stroke="#0d1665"></path><path d="M1975 1006.5L1832 925.5L1821 1153.8Z" fill="#091353" stroke="#091353"></path><path d="M1821 1153.8L1628 1328.2L1761 1332.2Z" fill="#211a93" stroke="#211a93"></path><path d="M2174 1491.5L2221 1390.2L2007 1323.2Z" fill="#131877" stroke="#131877"></path><path d="M2007 1323.2L2221 1390.2L2242 1194.8Z" fill="#091353" stroke="#091353"></path><path d="M1617 1096.8L1628 1328.2L1821 1153.8Z" fill="#0a145c" stroke="#0a145c"></path><path d="M2030 1582.5L2174 1491.5L2007 1323.2Z" fill="#26199c" stroke="#26199c"></path><path d="M1659 968.5L1617 1096.8L1821 1153.8Z" fill="#10176e" stroke="#10176e"></path><path d="M2242 1194.8L2196 972.5L2055 1143.8Z" fill="#091353" stroke="#091353"></path><path d="M1975 1006.5L1993 766.2L1832 925.5Z" fill="#171980" stroke="#171980"></path><path d="M2030 1582.5L2007 1323.2L1788 1561.5Z" fill="#091353" stroke="#091353"></path><path d="M1832 925.5L1659 968.5L1821 1153.8Z" fill="#2c19a5" stroke="#2c19a5"></path><path d="M1788 1561.5L2007 1323.2L1761 1332.2Z" fill="#1c1989" stroke="#1c1989"></path><path d="M1628 1499.5L1788 1561.5L1761 1332.2Z" fill="#171980" stroke="#171980"></path><path d="M1388 1354.2L1628 1499.5L1628 1328.2Z" fill="#08114a" stroke="#08114a"></path><path d="M1628 1328.2L1628 1499.5L1761 1332.2Z" fill="#26199c" stroke="#26199c"></path><path d="M1993 766.2L1748 814.2L1832 925.5Z" fill="#1c1989" stroke="#1c1989"></path><path d="M1832 925.5L1748 814.2L1659 968.5Z" fill="#1c1989" stroke="#1c1989"></path><path d="M2196 972.5L1993 766.2L1975 1006.5Z" fill="#091353" stroke="#091353"></path><path d="M2354 1590.5L2364 1376.2L2221 1390.2Z" fill="#0d1665" stroke="#0d1665"></path><path d="M2221 1390.2L2364 1376.2L2242 1194.8Z" fill="#171980" stroke="#171980"></path><path d="M2242 1194.8L2386 925.5L2196 972.5Z" fill="#0a145c" stroke="#0a145c"></path><path d="M2354 1590.5L2221 1390.2L2174 1491.5Z" fill="#10176e" stroke="#10176e"></path><path d="M2364 1376.2L2404 1208.8L2242 1194.8Z" fill="#131877" stroke="#131877"></path><path d="M1782 1759.8L1980 1673.8L1788 1561.5Z" fill="#08114a" stroke="#08114a"></path><path d="M1788 1561.5L1980 1673.8L2030 1582.5Z" fill="#2c19a5" stroke="#2c19a5"></path><path d="M2224 1721.8L2354 1590.5L2174 1491.5Z" fill="#0a145c" stroke="#0a145c"></path><path d="M2386 925.5L2242 807.2L2196 972.5Z" fill="#08114a" stroke="#08114a"></path><path d="M2196 972.5L2242 807.2L1993 766.2Z" fill="#26199c" stroke="#26199c"></path><path d="M1437 993.5L1429 1161.8L1617 1096.8Z" fill="#0d1665" stroke="#0d1665"></path><path d="M1617 1096.8L1429 1161.8L1628 1328.2Z" fill="#091353" stroke="#091353"></path><path d="M1437 993.5L1617 1096.8L1659 968.5Z" fill="#10176e" stroke="#10176e"></path><path d="M2404 1208.8L2386 925.5L2242 1194.8Z" fill="#10176e" stroke="#10176e"></path><path d="M1769 602.9L1579 819.2L1748 814.2Z" fill="#10176e" stroke="#10176e"></path><path d="M1748 814.2L1579 819.2L1659 968.5Z" fill="#08114a" stroke="#08114a"></path><path d="M1579 819.2L1437 993.5L1659 968.5Z" fill="#0d1665" stroke="#0d1665"></path><path d="M2224 1721.8L2174 1491.5L2030 1582.5Z" fill="#171980" stroke="#171980"></path><path d="M2364 1376.2L2552 1308.2L2404 1208.8Z" fill="#211a93" stroke="#211a93"></path><path d="M1192 1328.2L1388 1354.2L1179 1191.8Z" fill="#1c1989" stroke="#1c1989"></path><path d="M1429 1161.8L1388 1354.2L1628 1328.2Z" fill="#26199c" stroke="#26199c"></path><path d="M1538 1786.8L1782 1759.8L1628 1499.5Z" fill="#0a145c" stroke="#0a145c"></path><path d="M1628 1499.5L1782 1759.8L1788 1561.5Z" fill="#2c19a5" stroke="#2c19a5"></path><path d="M1980 1673.8L2224 1721.8L2030 1582.5Z" fill="#1c1989" stroke="#1c1989"></path><path d="M2139 1928.1L2224 1721.8L1980 1673.8Z" fill="#0d1665" stroke="#0d1665"></path><path d="M2589 1597.5L2552 1308.2L2364 1376.2Z" fill="#091353" stroke="#091353"></path><path d="M2404 1208.8L2577 1136.8L2386 925.5Z" fill="#2c19a5" stroke="#2c19a5"></path><path d="M1962 573.9L1769 602.9L1993 766.2Z" fill="#10176e" stroke="#10176e"></path><path d="M1993 766.2L1769 602.9L1748 814.2Z" fill="#10176e" stroke="#10176e"></path><path d="M2215 598.9L1993 766.2L2242 807.2Z" fill="#0d1665" stroke="#0d1665"></path><path d="M2215 598.9L1962 573.9L1993 766.2Z" fill="#2c19a5" stroke="#2c19a5"></path><path d="M2543 911.5L2453 825.2L2386 925.5Z" fill="#10176e" stroke="#10176e"></path><path d="M2386 925.5L2453 825.2L2242 807.2Z" fill="#0a145c" stroke="#0a145c"></path><path d="M2552 1308.2L2577 1136.8L2404 1208.8Z" fill="#2c19a5" stroke="#2c19a5"></path><path d="M1388 1354.2L1376 1545.5L1628 1499.5Z" fill="#2c19a5" stroke="#2c19a5"></path><path d="M2412 558.9L2215 598.9L2242 807.2Z" fill="#0d1665" stroke="#0d1665"></path><path d="M2577 1136.8L2543 911.5L2386 925.5Z" fill="#0d1665" stroke="#0d1665"></path><path d="M1376 1545.5L1538 1786.8L1628 1499.5Z" fill="#08114a" stroke="#08114a"></path><path d="M2374 1928.1L2444 1736.8L2224 1721.8Z" fill="#26199c" stroke="#26199c"></path><path d="M1560 541.9L1394 760.2L1579 819.2Z" fill="#0a145c" stroke="#0a145c"></path><path d="M1579 819.2L1394 760.2L1437 993.5Z" fill="#0a145c" stroke="#0a145c"></path><path d="M1179 1191.8L1388 1354.2L1429 1161.8Z" fill="#0d1665" stroke="#0d1665"></path><path d="M1388 1354.2L1232 1562.5L1376 1545.5Z" fill="#211a93" stroke="#211a93"></path><path d="M2224 1721.8L2444 1736.8L2354 1590.5Z" fill="#0a145c" stroke="#0a145c"></path><path d="M2354 1590.5L2589 1597.5L2364 1376.2Z" fill="#0a145c" stroke="#0a145c"></path><path d="M1962 1952.1L1980 1673.8L1782 1759.8Z" fill="#171980" stroke="#171980"></path><path d="M1859 1974.1L1962 1952.1L1782 1759.8Z" fill="#211a93" stroke="#211a93"></path><path d="M1962 1952.1L2139 1928.1L1980 1673.8Z" fill="#1c1989" stroke="#1c1989"></path><path d="M2444 1736.8L2589 1597.5L2354 1590.5Z" fill="#2c19a5" stroke="#2c19a5"></path><path d="M2552 1308.2L2757 1316.2L2577 1136.8Z" fill="#26199c" stroke="#26199c"></path><path d="M1179 1191.8L1429 1161.8L1197 1015.5Z" fill="#08114a" stroke="#08114a"></path><path d="M1421 1952.1L1575 1906.1L1538 1786.8Z" fill="#131877" stroke="#131877"></path><path d="M1197 1015.5L1429 1161.8L1437 993.5Z" fill="#171980" stroke="#171980"></path><path d="M1769 602.9L1560 541.9L1579 819.2Z" fill="#26199c" stroke="#26199c"></path><path d="M1586 403.6L1560 541.9L1769 602.9Z" fill="#1c1989" stroke="#1c1989"></path><path d="M1394 760.2L1197 1015.5L1437 993.5Z" fill="#211a93" stroke="#211a93"></path><path d="M1253 725.2L1197 1015.5L1394 760.2Z" fill="#171980" stroke="#171980"></path><path d="M2215 598.9L2017 444.6L1962 573.9Z" fill="#0a145c" stroke="#0a145c"></path><path d="M1962 573.9L1740 353.6L1769 602.9Z" fill="#0d1665" stroke="#0d1665"></path><path d="M1575 1906.1L1859 1974.1L1782 1759.8Z" fill="#171980" stroke="#171980"></path><path d="M2345 2073.4L2374 1928.1L2139 1928.1Z" fill="#10176e" stroke="#10176e"></path><path d="M1340 1753.8L1538 1786.8L1376 1545.5Z" fill="#10176e" stroke="#10176e"></path><path d="M1538 1786.8L1575 1906.1L1782 1759.8Z" fill="#091353" stroke="#091353"></path><path d="M1192 1328.2L1232 1562.5L1388 1354.2Z" fill="#131877" stroke="#131877"></path><path d="M2575 626.9L2412 558.9L2453 825.2Z" fill="#091353" stroke="#091353"></path><path d="M2453 825.2L2412 558.9L2242 807.2Z" fill="#10176e" stroke="#10176e"></path><path d="M2215 598.9L2205 425.6L2017 444.6Z" fill="#26199c" stroke="#26199c"></path><path d="M2811 942.5L2649 828.2L2543 911.5Z" fill="#091353" stroke="#091353"></path><path d="M2543 911.5L2649 828.2L2453 825.2Z" fill="#08114a" stroke="#08114a"></path><path d="M2811 942.5L2543 911.5L2577 1136.8Z" fill="#211a93" stroke="#211a93"></path><path d="M1232 1562.5L1340 1753.8L1376 1545.5Z" fill="#091353" stroke="#091353"></path><path d="M2801 1493.5L2757 1316.2L2552 1308.2Z" fill="#1c1989" stroke="#1c1989"></path><path d="M2412 558.9L2205 425.6L2215 598.9Z" fill="#131877" stroke="#131877"></path><path d="M2539 1863.1L2590 1739.8L2444 1736.8Z" fill="#211a93" stroke="#211a93"></path><path d="M2444 1736.8L2590 1739.8L2589 1597.5Z" fill="#0d1665" stroke="#0d1665"></path><path d="M2589 1597.5L2801 1493.5L2552 1308.2Z" fill="#211a93" stroke="#211a93"></path><path d="M2139 1928.1L2374 1928.1L2224 1721.8Z" fill="#08114a" stroke="#08114a"></path><path d="M2017 2068.4L2139 1928.1L1962 1952.1Z" fill="#1c1989" stroke="#1c1989"></path><path d="M1365 540.9L1253 725.2L1394 760.2Z" fill="#1c1989" stroke="#1c1989"></path><path d="M2649 828.2L2575 626.9L2453 825.2Z" fill="#091353" stroke="#091353"></path><path d="M2412 558.9L2378 376.6L2205 425.6Z" fill="#2c19a5" stroke="#2c19a5"></path><path d="M1741 2109.4L2017 2068.4L1859 1974.1Z" fill="#131877" stroke="#131877"></path><path d="M1859 1974.1L2017 2068.4L1962 1952.1Z" fill="#0d1665" stroke="#0d1665"></path><path d="M1942 229.3L1740 353.6L2017 444.6Z" fill="#0d1665" stroke="#0d1665"></path><path d="M2017 444.6L1740 353.6L1962 573.9Z" fill="#1c1989" stroke="#1c1989"></path><path d="M1560 541.9L1365 540.9L1394 760.2Z" fill="#211a93" stroke="#211a93"></path><path d="M1740 353.6L1586 403.6L1769 602.9Z" fill="#131877" stroke="#131877"></path><path d="M1452 423.6L1365 540.9L1560 541.9Z" fill="#0a145c" stroke="#0a145c"></path><path d="M2993 1195.8L2822 1170.8L2757 1316.2Z" fill="#0d1665" stroke="#0d1665"></path><path d="M2757 1316.2L2822 1170.8L2577 1136.8Z" fill="#2c19a5" stroke="#2c19a5"></path><path d="M2649 828.2L2803 779.2L2575 626.9Z" fill="#08114a" stroke="#08114a"></path><path d="M2374 1928.1L2539 1863.1L2444 1736.8Z" fill="#0d1665" stroke="#0d1665"></path><path d="M2795 1756.8L2589 1597.5L2590 1739.8Z" fill="#08114a" stroke="#08114a"></path><path d="M2795 1756.8L2801 1493.5L2589 1597.5Z" fill="#211a93" stroke="#211a93"></path><path d="M1340 1753.8L1421 1952.1L1538 1786.8Z" fill="#26199c" stroke="#26199c"></path><path d="M1575 1906.1L1741 2109.4L1859 1974.1Z" fill="#08114a" stroke="#08114a"></path><path d="M1203 1913.1L1421 1952.1L1340 1753.8Z" fill="#0a145c" stroke="#0a145c"></path><path d="M2822 1170.8L2811 942.5L2577 1136.8Z" fill="#091353" stroke="#091353"></path><path d="M1591 2064.4L1741 2109.4L1575 1906.1Z" fill="#08114a" stroke="#08114a"></path><path d="M1421 1952.1L1591 2064.4L1575 1906.1Z" fill="#08114a" stroke="#08114a"></path><path d="M2202 2330.7L2199 2096.4L2017 2068.4Z" fill="#26199c" stroke="#26199c"></path><path d="M2017 2068.4L2199 2096.4L2139 1928.1Z" fill="#0d1665" stroke="#0d1665"></path><path d="M2374 1928.1L2576 2116.4L2539 1863.1Z" fill="#211a93" stroke="#211a93"></path><path d="M1586 403.6L1452 423.6L1560 541.9Z" fill="#131877" stroke="#131877"></path><path d="M1388 217.3L1452 423.6L1586 403.6Z" fill="#10176e" stroke="#10176e"></path><path d="M939 1572.5L1148 1693.8L1232 1562.5Z" fill="#10176e" stroke="#10176e"></path><path d="M1232 1562.5L1148 1693.8L1340 1753.8Z" fill="#10176e" stroke="#10176e"></path><path d="M939 1572.5L1232 1562.5L1192 1328.2Z" fill="#0a145c" stroke="#0a145c"></path><path d="M1241 423.6L1219 617.9L1365 540.9Z" fill="#131877" stroke="#131877"></path><path d="M1365 540.9L1219 617.9L1253 725.2Z" fill="#131877" stroke="#131877"></path><path d="M1253 725.2L1032 954.5L1197 1015.5Z" fill="#171980" stroke="#171980"></path><path d="M1197 1015.5L966 1151.8L1179 1191.8Z" fill="#131877" stroke="#131877"></path><path d="M2564 360.6L2378 376.6L2412 558.9Z" fill="#091353" stroke="#091353"></path><path d="M2166 192.3L1942 229.3L2017 444.6Z" fill="#10176e" stroke="#10176e"></path><path d="M1020 712.2L1032 954.5L1253 725.2Z" fill="#1c1989" stroke="#1c1989"></path><path d="M1179 1191.8L970 1291.2L1192 1328.2Z" fill="#131877" stroke="#131877"></path><path d="M2199 2096.4L2345 2073.4L2139 1928.1Z" fill="#26199c" stroke="#26199c"></path><path d="M2811 942.5L2803 779.2L2649 828.2Z" fill="#131877" stroke="#131877"></path><path d="M2575 626.9L2564 360.6L2412 558.9Z" fill="#2c19a5" stroke="#2c19a5"></path><path d="M966 1151.8L970 1291.2L1179 1191.8Z" fill="#171980" stroke="#171980"></path><path d="M1032 954.5L966 1151.8L1197 1015.5Z" fill="#1c1989" stroke="#1c1989"></path><path d="M2166 192.3L2017 444.6L2205 425.6Z" fill="#10176e" stroke="#10176e"></path><path d="M1740 353.6L1652 248.3L1586 403.6Z" fill="#10176e" stroke="#10176e"></path><path d="M1814 190.3L1652 248.3L1740 353.6Z" fill="#0d1665" stroke="#0d1665"></path><path d="M1060 516.9L1020 712.2L1219 617.9Z" fill="#091353" stroke="#091353"></path><path d="M1203 1913.1L1399 2064.4L1421 1952.1Z" fill="#0a145c" stroke="#0a145c"></path><path d="M1421 1952.1L1399 2064.4L1591 2064.4Z" fill="#2c19a5" stroke="#2c19a5"></path><path d="M1609 2269.7L1850 2273.7L1741 2109.4Z" fill="#091353" stroke="#091353"></path><path d="M2762 1861.1L2795 1756.8L2590 1739.8Z" fill="#1c1989" stroke="#1c1989"></path><path d="M3005 1378.2L2993 1195.8L2757 1316.2Z" fill="#1c1989" stroke="#1c1989"></path><path d="M2762 1861.1L2590 1739.8L2539 1863.1Z" fill="#0a145c" stroke="#0a145c"></path><path d="M1148 1693.8L1203 1913.1L1340 1753.8Z" fill="#1c1989" stroke="#1c1989"></path><path d="M1061 1877.1L1203 1913.1L1148 1693.8Z" fill="#10176e" stroke="#10176e"></path><path d="M1942 229.3L1814 190.3L1740 353.6Z" fill="#0d1665" stroke="#0d1665"></path><path d="M2378 376.6L2166 192.3L2205 425.6Z" fill="#131877" stroke="#131877"></path><path d="M1942 229.3L1990 0L1814 190.3Z" fill="#26199c" stroke="#26199c"></path><path d="M1241 423.6L1365 540.9L1452 423.6Z" fill="#10176e" stroke="#10176e"></path><path d="M1219 617.9L1020 712.2L1253 725.2Z" fill="#2c19a5" stroke="#2c19a5"></path><path d="M759 1180.8L797 1286.2L966 1151.8Z" fill="#0a145c" stroke="#0a145c"></path><path d="M2576 2116.4L2762 1861.1L2539 1863.1Z" fill="#171980" stroke="#171980"></path><path d="M1388 217.3L1241 423.6L1452 423.6Z" fill="#091353" stroke="#091353"></path><path d="M3005 1378.2L2757 1316.2L2801 1493.5Z" fill="#171980" stroke="#171980"></path><path d="M2822 1170.8L2993 1195.8L2811 942.5Z" fill="#1c1989" stroke="#1c1989"></path><path d="M2811 942.5L2939 738.2L2803 779.2Z" fill="#26199c" stroke="#26199c"></path><path d="M3005 1378.2L2801 1493.5L2997 1587.5Z" fill="#131877" stroke="#131877"></path><path d="M2781 573.9L2564 360.6L2575 626.9Z" fill="#171980" stroke="#171980"></path><path d="M2378 376.6L2458 154.3L2166 192.3Z" fill="#0d1665" stroke="#0d1665"></path><path d="M2939 738.2L2781 573.9L2803 779.2Z" fill="#0a145c" stroke="#0a145c"></path><path d="M2803 779.2L2781 573.9L2575 626.9Z" fill="#0d1665" stroke="#0d1665"></path><path d="M797 1286.2L939 1572.5L970 1291.2Z" fill="#131877" stroke="#131877"></path><path d="M970 1291.2L939 1572.5L1192 1328.2Z" fill="#131877" stroke="#131877"></path><path d="M1609 2269.7L1741 2109.4L1591 2064.4Z" fill="#26199c" stroke="#26199c"></path><path d="M1741 2109.4L1850 2273.7L2017 2068.4Z" fill="#26199c" stroke="#26199c"></path><path d="M2343 2331.7L2576 2116.4L2345 2073.4Z" fill="#08114a" stroke="#08114a"></path><path d="M2997 1587.5L2801 1493.5L2795 1756.8Z" fill="#10176e" stroke="#10176e"></path><path d="M3054 899.5L2939 738.2L2811 942.5Z" fill="#26199c" stroke="#26199c"></path><path d="M986 1786.8L1061 1877.1L1148 1693.8Z" fill="#26199c" stroke="#26199c"></path><path d="M1203 1913.1L1147 2158.4L1399 2064.4Z" fill="#0a145c" stroke="#0a145c"></path><path d="M2343 2331.7L2345 2073.4L2199 2096.4Z" fill="#171980" stroke="#171980"></path><path d="M2345 2073.4L2576 2116.4L2374 1928.1Z" fill="#091353" stroke="#091353"></path><path d="M1346 2307.7L1609 2269.7L1399 2064.4Z" fill="#10176e" stroke="#10176e"></path><path d="M1399 2064.4L1609 2269.7L1591 2064.4Z" fill="#08114a" stroke="#08114a"></path><path d="M939 1572.5L986 1786.8L1148 1693.8Z" fill="#26199c" stroke="#26199c"></path><path d="M1241 423.6L1060 516.9L1219 617.9Z" fill="#26199c" stroke="#26199c"></path><path d="M3017 1689.8L2795 1756.8L2964 1904.1Z" fill="#171980" stroke="#171980"></path><path d="M3017 1689.8L2997 1587.5L2795 1756.8Z" fill="#0a145c" stroke="#0a145c"></path><path d="M1652 248.3L1388 217.3L1586 403.6Z" fill="#171980" stroke="#171980"></path><path d="M1241 423.6L990 352.6L1060 516.9Z" fill="#0d1665" stroke="#0d1665"></path><path d="M1553 0L1388 217.3L1652 248.3Z" fill="#08114a" stroke="#08114a"></path><path d="M759 1180.8L966 1151.8L748 937.5Z" fill="#171980" stroke="#171980"></path><path d="M966 1151.8L797 1286.2L970 1291.2Z" fill="#26199c" stroke="#26199c"></path><path d="M939 1572.5L832 1696.8L986 1786.8Z" fill="#171980" stroke="#171980"></path><path d="M966 1151.8L1032 954.5L748 937.5Z" fill="#10176e" stroke="#10176e"></path><path d="M2010 2366.7L2017 2068.4L1850 2273.7Z" fill="#211a93" stroke="#211a93"></path><path d="M2010 2366.7L2202 2330.7L2017 2068.4Z" fill="#0d1665" stroke="#0d1665"></path><path d="M3177 1124.8L3054 899.5L2993 1195.8Z" fill="#2c19a5" stroke="#2c19a5"></path><path d="M2993 1195.8L3054 899.5L2811 942.5Z" fill="#0d1665" stroke="#0d1665"></path><path d="M3177 1124.8L2993 1195.8L3187 1295.2Z" fill="#2c19a5" stroke="#2c19a5"></path><path d="M2060 2500L2010 2366.7L1758 2500Z" fill="#10176e" stroke="#10176e"></path><path d="M797 1286.2L834 1583.5L939 1572.5Z" fill="#10176e" stroke="#10176e"></path><path d="M2843 343.6L2567 215.3L2564 360.6Z" fill="#0a145c" stroke="#0a145c"></path><path d="M2564 360.6L2567 215.3L2378 376.6Z" fill="#26199c" stroke="#26199c"></path><path d="M2843 343.6L2564 360.6L2781 573.9Z" fill="#211a93" stroke="#211a93"></path><path d="M2952 602.9L2781 573.9L2939 738.2Z" fill="#091353" stroke="#091353"></path><path d="M2567 215.3L2458 154.3L2378 376.6Z" fill="#131877" stroke="#131877"></path><path d="M2166 192.3L1990 0L1942 229.3Z" fill="#131877" stroke="#131877"></path><path d="M2964 1904.1L2795 1756.8L2762 1861.1Z" fill="#0d1665" stroke="#0d1665"></path><path d="M3187 1295.2L2993 1195.8L3005 1378.2Z" fill="#211a93" stroke="#211a93"></path><path d="M3212 571.9L2952 602.9L2939 738.2Z" fill="#091353" stroke="#091353"></path><path d="M812 738.2L1032 954.5L1020 712.2Z" fill="#1c1989" stroke="#1c1989"></path><path d="M623 1532.5L832 1696.8L834 1583.5Z" fill="#2c19a5" stroke="#2c19a5"></path><path d="M2164 2500L2343 2331.7L2202 2330.7Z" fill="#2c19a5" stroke="#2c19a5"></path><path d="M2202 2330.7L2343 2331.7L2199 2096.4Z" fill="#10176e" stroke="#10176e"></path><path d="M2171 0L1990 0L2166 192.3Z" fill="#131877" stroke="#131877"></path><path d="M1814 190.3L1786 0L1652 248.3Z" fill="#1c1989" stroke="#1c1989"></path><path d="M771 1866.1L832 1696.8L576 1752.8Z" fill="#0a145c" stroke="#0a145c"></path><path d="M834 1583.5L832 1696.8L939 1572.5Z" fill="#10176e" stroke="#10176e"></path><path d="M771 1866.1L1055 2056.4L1061 1877.1Z" fill="#091353" stroke="#091353"></path><path d="M2778 2342.7L2796 2074.4L2576 2116.4Z" fill="#131877" stroke="#131877"></path><path d="M2576 2116.4L2796 2074.4L2762 1861.1Z" fill="#211a93" stroke="#211a93"></path><path d="M1990 0L1786 0L1814 190.3Z" fill="#0a145c" stroke="#0a145c"></path><path d="M783 606.9L1020 712.2L1060 516.9Z" fill="#091353" stroke="#091353"></path><path d="M783 606.9L812 738.2L1020 712.2Z" fill="#091353" stroke="#091353"></path><path d="M812 738.2L748 937.5L1032 954.5Z" fill="#211a93" stroke="#211a93"></path><path d="M771 1866.1L1061 1877.1L986 1786.8Z" fill="#0d1665" stroke="#0d1665"></path><path d="M1061 1877.1L1055 2056.4L1203 1913.1Z" fill="#26199c" stroke="#26199c"></path><path d="M2341 0L2171 0L2166 192.3Z" fill="#211a93" stroke="#211a93"></path><path d="M2796 2074.4L2964 1904.1L2762 1861.1Z" fill="#0a145c" stroke="#0a145c"></path><path d="M1055 2056.4L1147 2158.4L1203 1913.1Z" fill="#10176e" stroke="#10176e"></path><path d="M1758 2500L2010 2366.7L1850 2273.7Z" fill="#0a145c" stroke="#0a145c"></path><path d="M3187 1295.2L3005 1378.2L3233 1545.5Z" fill="#0d1665" stroke="#0d1665"></path><path d="M3054 899.5L3185 821.2L2939 738.2Z" fill="#08114a" stroke="#08114a"></path><path d="M3005 1378.2L2997 1587.5L3233 1545.5Z" fill="#26199c" stroke="#26199c"></path><path d="M1147 2158.4L1346 2307.7L1399 2064.4Z" fill="#2c19a5" stroke="#2c19a5"></path><path d="M3233 1545.5L2997 1587.5L3017 1689.8Z" fill="#10176e" stroke="#10176e"></path><path d="M2960 372.6L2843 343.6L2781 573.9Z" fill="#171980" stroke="#171980"></path><path d="M2652 0L2341 0L2458 154.3Z" fill="#10176e" stroke="#10176e"></path><path d="M2458 154.3L2341 0L2166 192.3Z" fill="#1c1989" stroke="#1c1989"></path><path d="M2960 372.6L2781 573.9L2952 602.9Z" fill="#0d1665" stroke="#0d1665"></path><path d="M2343 2331.7L2559 2313.7L2576 2116.4Z" fill="#0d1665" stroke="#0d1665"></path><path d="M2448 2500L2559 2313.7L2343 2331.7Z" fill="#10176e" stroke="#10176e"></path><path d="M1786 0L1553 0L1652 248.3Z" fill="#10176e" stroke="#10176e"></path><path d="M1388 217.3L1156 202.3L1241 423.6Z" fill="#08114a" stroke="#08114a"></path><path d="M2652 0L2458 154.3L2567 215.3Z" fill="#211a93" stroke="#211a93"></path><path d="M1340 0L1156 202.3L1388 217.3Z" fill="#131877" stroke="#131877"></path><path d="M1156 202.3L990 352.6L1241 423.6Z" fill="#211a93" stroke="#211a93"></path><path d="M1758 2500L1850 2273.7L1609 2269.7Z" fill="#211a93" stroke="#211a93"></path><path d="M2010 2366.7L2164 2500L2202 2330.7Z" fill="#08114a" stroke="#08114a"></path><path d="M3247 965.5L3054 899.5L3177 1124.8Z" fill="#0a145c" stroke="#0a145c"></path><path d="M3247 965.5L3185 821.2L3054 899.5Z" fill="#171980" stroke="#171980"></path><path d="M1579 2500L1758 2500L1609 2269.7Z" fill="#0d1665" stroke="#0d1665"></path><path d="M813 353.6L783 606.9L1060 516.9Z" fill="#26199c" stroke="#26199c"></path><path d="M554 801.2L565 903.5L748 937.5Z" fill="#091353" stroke="#091353"></path><path d="M2060 2500L2164 2500L2010 2366.7Z" fill="#10176e" stroke="#10176e"></path><path d="M3212 571.9L2960 372.6L2952 602.9Z" fill="#131877" stroke="#131877"></path><path d="M2843 343.6L2791 132.3L2567 215.3Z" fill="#26199c" stroke="#26199c"></path><path d="M3377 1180.8L3247 965.5L3177 1124.8Z" fill="#211a93" stroke="#211a93"></path><path d="M3194 1750.8L3233 1545.5L3017 1689.8Z" fill="#1c1989" stroke="#1c1989"></path><path d="M3187 1295.2L3377 1180.8L3177 1124.8Z" fill="#171980" stroke="#171980"></path><path d="M1147 2158.4L1184 2312.7L1346 2307.7Z" fill="#0a145c" stroke="#0a145c"></path><path d="M1409 2500L1579 2500L1609 2269.7Z" fill="#131877" stroke="#131877"></path><path d="M964 2357.7L1184 2312.7L1147 2158.4Z" fill="#0d1665" stroke="#0d1665"></path><path d="M964 2357.7L1147 2158.4L1055 2056.4Z" fill="#091353" stroke="#091353"></path><path d="M1409 2500L1609 2269.7L1346 2307.7Z" fill="#0d1665" stroke="#0d1665"></path><path d="M623 1532.5L834 1583.5L797 1286.2Z" fill="#211a93" stroke="#211a93"></path><path d="M832 1696.8L771 1866.1L986 1786.8Z" fill="#10176e" stroke="#10176e"></path><path d="M564 1391.2L797 1286.2L759 1180.8Z" fill="#26199c" stroke="#26199c"></path><path d="M565 903.5L601 1119.8L748 937.5Z" fill="#091353" stroke="#091353"></path><path d="M748 937.5L601 1119.8L759 1180.8Z" fill="#091353" stroke="#091353"></path><path d="M1553 0L1340 0L1388 217.3Z" fill="#10176e" stroke="#10176e"></path><path d="M1156 202.3L1025 131.3L990 352.6Z" fill="#1c1989" stroke="#1c1989"></path><path d="M564 1391.2L623 1532.5L797 1286.2Z" fill="#171980" stroke="#171980"></path><path d="M3260 1962.1L3194 1750.8L2964 1904.1Z" fill="#26199c" stroke="#26199c"></path><path d="M2964 1904.1L3194 1750.8L3017 1689.8Z" fill="#091353" stroke="#091353"></path><path d="M3017 2132.4L2964 1904.1L2796 2074.4Z" fill="#26199c" stroke="#26199c"></path><path d="M2978 196.3L2791 132.3L2843 343.6Z" fill="#211a93" stroke="#211a93"></path><path d="M2164 2500L2448 2500L2343 2331.7Z" fill="#10176e" stroke="#10176e"></path><path d="M2559 2313.7L2778 2342.7L2576 2116.4Z" fill="#26199c" stroke="#26199c"></path><path d="M601 1119.8L564 1391.2L759 1180.8Z" fill="#0a145c" stroke="#0a145c"></path><path d="M1199 2500L1409 2500L1346 2307.7Z" fill="#08114a" stroke="#08114a"></path><path d="M2791 132.3L2652 0L2567 215.3Z" fill="#091353" stroke="#091353"></path><path d="M554 801.2L748 937.5L812 738.2Z" fill="#131877" stroke="#131877"></path><path d="M601 1119.8L425 1145.8L564 1391.2Z" fill="#131877" stroke="#131877"></path><path d="M2564 2500L2778 2342.7L2559 2313.7Z" fill="#1c1989" stroke="#1c1989"></path><path d="M1177 0L1025 131.3L1156 202.3Z" fill="#10176e" stroke="#10176e"></path><path d="M990 352.6L813 353.6L1060 516.9Z" fill="#08114a" stroke="#08114a"></path><path d="M783 606.9L554 801.2L812 738.2Z" fill="#08114a" stroke="#08114a"></path><path d="M1025 131.3L813 353.6L990 352.6Z" fill="#08114a" stroke="#08114a"></path><path d="M3026 2252.7L3017 2132.4L2796 2074.4Z" fill="#211a93" stroke="#211a93"></path><path d="M3435 773.2L3212 571.9L3185 821.2Z" fill="#0a145c" stroke="#0a145c"></path><path d="M3185 821.2L3212 571.9L2939 738.2Z" fill="#131877" stroke="#131877"></path><path d="M2960 372.6L2978 196.3L2843 343.6Z" fill="#131877" stroke="#131877"></path><path d="M1340 0L1177 0L1156 202.3Z" fill="#0d1665" stroke="#0d1665"></path><path d="M2448 2500L2564 2500L2559 2313.7Z" fill="#171980" stroke="#171980"></path><path d="M3418 1574.5L3371 1337.2L3233 1545.5Z" fill="#1c1989" stroke="#1c1989"></path><path d="M3233 1545.5L3371 1337.2L3187 1295.2Z" fill="#0a145c" stroke="#0a145c"></path><path d="M3247 965.5L3435 773.2L3185 821.2Z" fill="#08114a" stroke="#08114a"></path><path d="M3371 1337.2L3377 1180.8L3187 1295.2Z" fill="#26199c" stroke="#26199c"></path><path d="M553 598.9L554 801.2L783 606.9Z" fill="#08114a" stroke="#08114a"></path><path d="M565 903.5L447 1022.5L601 1119.8Z" fill="#0a145c" stroke="#0a145c"></path><path d="M3197 175.3L2978 196.3L2960 372.6Z" fill="#2c19a5" stroke="#2c19a5"></path><path d="M2791 132.3L2758 0L2652 0Z" fill="#1c1989" stroke="#1c1989"></path><path d="M3046 0L2758 0L2791 132.3Z" fill="#211a93" stroke="#211a93"></path><path d="M623 1532.5L576 1752.8L832 1696.8Z" fill="#0d1665" stroke="#0d1665"></path><path d="M771 1866.1L758 2092.4L1055 2056.4Z" fill="#0d1665" stroke="#0d1665"></path><path d="M366 1596.5L576 1752.8L623 1532.5Z" fill="#26199c" stroke="#26199c"></path><path d="M553 1895.1L758 2092.4L771 1866.1Z" fill="#131877" stroke="#131877"></path><path d="M1184 2312.7L1199 2500L1346 2307.7Z" fill="#171980" stroke="#171980"></path><path d="M995 2500L1199 2500L1184 2312.7Z" fill="#131877" stroke="#131877"></path><path d="M346 823.2L447 1022.5L565 903.5Z" fill="#1c1989" stroke="#1c1989"></path><path d="M564 1391.2L366 1596.5L623 1532.5Z" fill="#0d1665" stroke="#0d1665"></path><path d="M3008 2500L3026 2252.7L2778 2342.7Z" fill="#211a93" stroke="#211a93"></path><path d="M2778 2342.7L3026 2252.7L2796 2074.4Z" fill="#171980" stroke="#171980"></path><path d="M3260 1962.1L3372 1711.8L3194 1750.8Z" fill="#131877" stroke="#131877"></path><path d="M3194 1750.8L3372 1711.8L3233 1545.5Z" fill="#10176e" stroke="#10176e"></path><path d="M758 2092.4L964 2357.7L1055 2056.4Z" fill="#0a145c" stroke="#0a145c"></path><path d="M635 424.6L553 598.9L783 606.9Z" fill="#10176e" stroke="#10176e"></path><path d="M554 801.2L346 823.2L565 903.5Z" fill="#0d1665" stroke="#0d1665"></path><path d="M635 424.6L783 606.9L813 353.6Z" fill="#26199c" stroke="#26199c"></path><path d="M447 1022.5L425 1145.8L601 1119.8Z" fill="#211a93" stroke="#211a93"></path><path d="M3260 1962.1L2964 1904.1L3017 2132.4Z" fill="#1c1989" stroke="#1c1989"></path><path d="M3591 1200.8L3458 984.5L3377 1180.8Z" fill="#1c1989" stroke="#1c1989"></path><path d="M3184 2157.4L3260 1962.1L3017 2132.4Z" fill="#211a93" stroke="#211a93"></path><path d="M3372 1711.8L3418 1574.5L3233 1545.5Z" fill="#08114a" stroke="#08114a"></path><path d="M568 224.3L635 424.6L813 353.6Z" fill="#211a93" stroke="#211a93"></path><path d="M766 130.3L813 353.6L1025 131.3Z" fill="#0a145c" stroke="#0a145c"></path><path d="M2564 2500L2769 2500L2778 2342.7Z" fill="#0a145c" stroke="#0a145c"></path><path d="M3591 1200.8L3377 1180.8L3371 1337.2Z" fill="#10176e" stroke="#10176e"></path><path d="M3377 1180.8L3458 984.5L3247 965.5Z" fill="#211a93" stroke="#211a93"></path><path d="M1177 0L990 0L1025 131.3Z" fill="#0d1665" stroke="#0d1665"></path><path d="M576 1752.8L553 1895.1L771 1866.1Z" fill="#171980" stroke="#171980"></path><path d="M758 2092.4L787 2307.7L964 2357.7Z" fill="#1c1989" stroke="#1c1989"></path><path d="M388 1707.8L553 1895.1L576 1752.8Z" fill="#2c19a5" stroke="#2c19a5"></path><path d="M3458 984.5L3435 773.2L3247 965.5Z" fill="#0a145c" stroke="#0a145c"></path><path d="M3212 571.9L3258 346.6L2960 372.6Z" fill="#091353" stroke="#091353"></path><path d="M254 1289.2L386 1330.2L425 1145.8Z" fill="#08114a" stroke="#08114a"></path><path d="M425 1145.8L386 1330.2L564 1391.2Z" fill="#171980" stroke="#171980"></path><path d="M3260 1962.1L3435 1969.1L3372 1711.8Z" fill="#10176e" stroke="#10176e"></path><path d="M3026 2252.7L3184 2157.4L3017 2132.4Z" fill="#0a145c" stroke="#0a145c"></path><path d="M3186 2316.7L3184 2157.4L3026 2252.7Z" fill="#1c1989" stroke="#1c1989"></path><path d="M3347 421.6L3258 346.6L3212 571.9Z" fill="#211a93" stroke="#211a93"></path><path d="M2978 196.3L3046 0L2791 132.3Z" fill="#08114a" stroke="#08114a"></path><path d="M597 2141.4L787 2307.7L758 2092.4Z" fill="#0a145c" stroke="#0a145c"></path><path d="M964 2357.7L995 2500L1184 2312.7Z" fill="#08114a" stroke="#08114a"></path><path d="M990 0L766 130.3L1025 131.3Z" fill="#26199c" stroke="#26199c"></path><path d="M389 544.9L346 823.2L553 598.9Z" fill="#211a93" stroke="#211a93"></path><path d="M795 2500L995 2500L964 2357.7Z" fill="#26199c" stroke="#26199c"></path><path d="M3435 773.2L3403 556.9L3212 571.9Z" fill="#1c1989" stroke="#1c1989"></path><path d="M3403 556.9L3347 421.6L3212 571.9Z" fill="#211a93" stroke="#211a93"></path><path d="M386 1330.2L366 1596.5L564 1391.2Z" fill="#0d1665" stroke="#0d1665"></path><path d="M553 1895.1L597 2141.4L758 2092.4Z" fill="#091353" stroke="#091353"></path><path d="M3434 191.3L3197 175.3L3258 346.6Z" fill="#131877" stroke="#131877"></path><path d="M3258 346.6L3197 175.3L2960 372.6Z" fill="#1c1989" stroke="#1c1989"></path><path d="M366 1596.5L388 1707.8L576 1752.8Z" fill="#0a145c" stroke="#0a145c"></path><path d="M429 1964.1L597 2141.4L553 1895.1Z" fill="#171980" stroke="#171980"></path><path d="M787 2307.7L795 2500L964 2357.7Z" fill="#131877" stroke="#131877"></path><path d="M3197 175.3L3046 0L2978 196.3Z" fill="#0a145c" stroke="#0a145c"></path><path d="M553 598.9L346 823.2L554 801.2Z" fill="#08114a" stroke="#08114a"></path><path d="M218 1175.8L254 1289.2L425 1145.8Z" fill="#08114a" stroke="#08114a"></path><path d="M386 1330.2L187 1583.5L366 1596.5Z" fill="#2c19a5" stroke="#2c19a5"></path><path d="M389 544.9L553 598.9L635 424.6Z" fill="#08114a" stroke="#08114a"></path><path d="M3628 1349.2L3591 1200.8L3371 1337.2Z" fill="#171980" stroke="#171980"></path><path d="M3458 984.5L3560 772.2L3435 773.2Z" fill="#10176e" stroke="#10176e"></path><path d="M3435 773.2L3599 634.9L3403 556.9Z" fill="#131877" stroke="#131877"></path><path d="M3628 1349.2L3371 1337.2L3418 1574.5Z" fill="#0d1665" stroke="#0d1665"></path><path d="M3581 1597.5L3418 1574.5L3372 1711.8Z" fill="#131877" stroke="#131877"></path><path d="M3008 2500L3186 2316.7L3026 2252.7Z" fill="#0a145c" stroke="#0a145c"></path><path d="M3184 2157.4L3342 2120.4L3260 1962.1Z" fill="#131877" stroke="#131877"></path><path d="M3186 2316.7L3342 2120.4L3184 2157.4Z" fill="#211a93" stroke="#211a93"></path><path d="M2769 2500L3008 2500L2778 2342.7Z" fill="#08114a" stroke="#08114a"></path><path d="M3342 2120.4L3435 1969.1L3260 1962.1Z" fill="#08114a" stroke="#08114a"></path><path d="M3628 1013.5L3560 772.2L3458 984.5Z" fill="#2c19a5" stroke="#2c19a5"></path><path d="M3647 339.6L3434 191.3L3347 421.6Z" fill="#0a145c" stroke="#0a145c"></path><path d="M3654 1711.8L3581 1597.5L3372 1711.8Z" fill="#10176e" stroke="#10176e"></path><path d="M378 342.6L389 544.9L635 424.6Z" fill="#131877" stroke="#131877"></path><path d="M218 1175.8L425 1145.8L447 1022.5Z" fill="#26199c" stroke="#26199c"></path><path d="M366 1596.5L193 1676.8L388 1707.8Z" fill="#171980" stroke="#171980"></path><path d="M218 1175.8L447 1022.5L180 904.5Z" fill="#1c1989" stroke="#1c1989"></path><path d="M766 130.3L568 224.3L813 353.6Z" fill="#1c1989" stroke="#1c1989"></path><path d="M559 0L568 224.3L766 130.3Z" fill="#171980" stroke="#171980"></path><path d="M252 1865.1L429 1964.1L388 1707.8Z" fill="#091353" stroke="#091353"></path><path d="M388 1707.8L429 1964.1L553 1895.1Z" fill="#10176e" stroke="#10176e"></path><path d="M3581 1597.5L3628 1349.2L3418 1574.5Z" fill="#08114a" stroke="#08114a"></path><path d="M3591 1200.8L3628 1013.5L3458 984.5Z" fill="#171980" stroke="#171980"></path><path d="M990 0L755 0L766 130.3Z" fill="#26199c" stroke="#26199c"></path><path d="M3753 912.5L3628 1013.5L3854 1103.8Z" fill="#26199c" stroke="#26199c"></path><path d="M180 904.5L447 1022.5L346 823.2Z" fill="#0a145c" stroke="#0a145c"></path><path d="M254 1289.2L187 1583.5L386 1330.2Z" fill="#211a93" stroke="#211a93"></path><path d="M640 2345.7L787 2307.7L597 2141.4Z" fill="#091353" stroke="#091353"></path><path d="M640 2345.7L795 2500L787 2307.7Z" fill="#08114a" stroke="#08114a"></path><path d="M433 2273.7L640 2345.7L597 2141.4Z" fill="#171980" stroke="#171980"></path><path d="M216 596.9L259 808.2L346 823.2Z" fill="#10176e" stroke="#10176e"></path><path d="M3373 0L3184 0L3197 175.3Z" fill="#26199c" stroke="#26199c"></path><path d="M3197 175.3L3184 0L3046 0Z" fill="#1c1989" stroke="#1c1989"></path><path d="M3434 191.3L3258 346.6L3347 421.6Z" fill="#0a145c" stroke="#0a145c"></path><path d="M3806 774.2L3599 634.9L3560 772.2Z" fill="#1c1989" stroke="#1c1989"></path><path d="M3560 772.2L3599 634.9L3435 773.2Z" fill="#0d1665" stroke="#0d1665"></path><path d="M3614 1905.1L3372 1711.8L3435 1969.1Z" fill="#0a145c" stroke="#0a145c"></path><path d="M3614 1905.1L3654 1711.8L3372 1711.8Z" fill="#26199c" stroke="#26199c"></path><path d="M3806 1490.5L3796 1332.2L3628 1349.2Z" fill="#2c19a5" stroke="#2c19a5"></path><path d="M3854 1103.8L3628 1013.5L3591 1200.8Z" fill="#131877" stroke="#131877"></path><path d="M0 718.2L180 904.5L259 808.2Z" fill="#26199c" stroke="#26199c"></path><path d="M259 808.2L180 904.5L346 823.2Z" fill="#131877" stroke="#131877"></path><path d="M216 596.9L346 823.2L389 544.9Z" fill="#0d1665" stroke="#0d1665"></path><path d="M362 135.3L378 342.6L568 224.3Z" fill="#0a145c" stroke="#0a145c"></path><path d="M568 224.3L378 342.6L635 424.6Z" fill="#211a93" stroke="#211a93"></path><path d="M0 1364.2L254 1289.2L218 1175.8Z" fill="#08114a" stroke="#08114a"></path><path d="M0 1364.2L187 1583.5L254 1289.2Z" fill="#171980" stroke="#171980"></path><path d="M429 1964.1L390 2125.4L597 2141.4Z" fill="#08114a" stroke="#08114a"></path><path d="M261 2126.4L390 2125.4L429 1964.1Z" fill="#1c1989" stroke="#1c1989"></path><path d="M640 2345.7L622 2500L795 2500Z" fill="#211a93" stroke="#211a93"></path><path d="M3540 191.3L3434 191.3L3647 339.6Z" fill="#26199c" stroke="#26199c"></path><path d="M187 1583.5L193 1676.8L366 1596.5Z" fill="#10176e" stroke="#10176e"></path><path d="M193 1676.8L252 1865.1L388 1707.8Z" fill="#091353" stroke="#091353"></path><path d="M3599 2061.4L3435 1969.1L3342 2120.4Z" fill="#10176e" stroke="#10176e"></path><path d="M3599 2061.4L3614 1905.1L3435 1969.1Z" fill="#1c1989" stroke="#1c1989"></path><path d="M3407 2309.7L3342 2120.4L3186 2316.7Z" fill="#091353" stroke="#091353"></path><path d="M222 392.6L216 596.9L389 544.9Z" fill="#131877" stroke="#131877"></path><path d="M3247 2500L3407 2309.7L3186 2316.7Z" fill="#091353" stroke="#091353"></path><path d="M755 0L559 0L766 130.3Z" fill="#2c19a5" stroke="#2c19a5"></path><path d="M378 342.6L222 392.6L389 544.9Z" fill="#171980" stroke="#171980"></path><path d="M3008 2500L3247 2500L3186 2316.7Z" fill="#171980" stroke="#171980"></path><path d="M3796 1332.2L3591 1200.8L3628 1349.2Z" fill="#2c19a5" stroke="#2c19a5"></path><path d="M3628 1013.5L3753 912.5L3560 772.2Z" fill="#1c1989" stroke="#1c1989"></path><path d="M3647 339.6L3347 421.6L3403 556.9Z" fill="#171980" stroke="#171980"></path><path d="M433 2273.7L622 2500L640 2345.7Z" fill="#08114a" stroke="#08114a"></path><path d="M261 2126.4L433 2273.7L390 2125.4Z" fill="#0d1665" stroke="#0d1665"></path><path d="M390 2125.4L433 2273.7L597 2141.4Z" fill="#211a93" stroke="#211a93"></path><path d="M3744 1688.8L3581 1597.5L3654 1711.8Z" fill="#0a145c" stroke="#0a145c"></path><path d="M3806 1490.5L3628 1349.2L3581 1597.5Z" fill="#171980" stroke="#171980"></path><path d="M3407 2309.7L3599 2061.4L3342 2120.4Z" fill="#171980" stroke="#171980"></path><path d="M3614 1905.1L3744 1688.8L3654 1711.8Z" fill="#131877" stroke="#131877"></path><path d="M3849 1915.1L3744 1688.8L3614 1905.1Z" fill="#0a145c" stroke="#0a145c"></path><path d="M3434 191.3L3373 0L3197 175.3Z" fill="#08114a" stroke="#08114a"></path><path d="M3539 0L3373 0L3434 191.3Z" fill="#10176e" stroke="#10176e"></path><path d="M3744 1688.8L3806 1490.5L3581 1597.5Z" fill="#1c1989" stroke="#1c1989"></path><path d="M3647 339.6L3403 556.9L3599 634.9Z" fill="#211a93" stroke="#211a93"></path><path d="M174 168.3L222 392.6L378 342.6Z" fill="#211a93" stroke="#211a93"></path><path d="M0 943.5L0 1125.8L180 904.5Z" fill="#0d1665" stroke="#0d1665"></path><path d="M559 0L362 135.3L568 224.3Z" fill="#1c1989" stroke="#1c1989"></path><path d="M0 1948.1L261 2126.4L252 1865.1Z" fill="#0d1665" stroke="#0d1665"></path><path d="M252 1865.1L261 2126.4L429 1964.1Z" fill="#171980" stroke="#171980"></path><path d="M433 2273.7L369 2500L622 2500Z" fill="#10176e" stroke="#10176e"></path><path d="M3799 589.9L3647 339.6L3599 634.9Z" fill="#171980" stroke="#171980"></path><path d="M4000 802.2L3806 774.2L3753 912.5Z" fill="#1c1989" stroke="#1c1989"></path><path d="M3753 912.5L3806 774.2L3560 772.2Z" fill="#2c19a5" stroke="#2c19a5"></path><path d="M3854 1103.8L3591 1200.8L3796 1332.2Z" fill="#2c19a5" stroke="#2c19a5"></path><path d="M4000 1145.8L3854 1103.8L3796 1332.2Z" fill="#091353" stroke="#091353"></path><path d="M3247 2500L3361 2500L3407 2309.7Z" fill="#211a93" stroke="#211a93"></path><path d="M3788 2275.7L3767 2081.4L3599 2061.4Z" fill="#2c19a5" stroke="#2c19a5"></path><path d="M0 943.5L180 904.5L0 718.2Z" fill="#0d1665" stroke="#0d1665"></path><path d="M180 904.5L0 1125.8L218 1175.8Z" fill="#10176e" stroke="#10176e"></path><path d="M187 1583.5L0 1599.5L193 1676.8Z" fill="#211a93" stroke="#211a93"></path><path d="M193 1676.8L0 1779.8L252 1865.1Z" fill="#0a145c" stroke="#0a145c"></path><path d="M0 1125.8L0 1364.2L218 1175.8Z" fill="#26199c" stroke="#26199c"></path><path d="M0 718.2L259 808.2L216 596.9Z" fill="#171980" stroke="#171980"></path><path d="M3806 774.2L3799 589.9L3599 634.9Z" fill="#131877" stroke="#131877"></path><path d="M4000 620.9L3799 589.9L3806 774.2Z" fill="#26199c" stroke="#26199c"></path><path d="M362 135.3L174 168.3L378 342.6Z" fill="#10176e" stroke="#10176e"></path><path d="M559 0L387 0L362 135.3Z" fill="#131877" stroke="#131877"></path><path d="M0 1364.2L0 1599.5L187 1583.5Z" fill="#171980" stroke="#171980"></path><path d="M0 607.9L0 718.2L216 596.9Z" fill="#171980" stroke="#171980"></path><path d="M0 607.9L216 596.9L222 392.6Z" fill="#091353" stroke="#091353"></path><path d="M3807 143.3L3540 191.3L3647 339.6Z" fill="#10176e" stroke="#10176e"></path><path d="M3807 143.3L3539 0L3540 191.3Z" fill="#1c1989" stroke="#1c1989"></path><path d="M3540 191.3L3539 0L3434 191.3Z" fill="#211a93" stroke="#211a93"></path><path d="M0 1599.5L0 1779.8L193 1676.8Z" fill="#08114a" stroke="#08114a"></path><path d="M3619 2353.7L3599 2061.4L3407 2309.7Z" fill="#2c19a5" stroke="#2c19a5"></path><path d="M3599 2061.4L3767 2081.4L3614 1905.1Z" fill="#1c1989" stroke="#1c1989"></path><path d="M4000 1675.8L4000 1556.5L3806 1490.5Z" fill="#171980" stroke="#171980"></path><path d="M4000 1365.2L4000 1145.8L3796 1332.2Z" fill="#211a93" stroke="#211a93"></path><path d="M3591 2500L3619 2353.7L3407 2309.7Z" fill="#0d1665" stroke="#0d1665"></path><path d="M0 352.6L0 607.9L222 392.6Z" fill="#2c19a5" stroke="#2c19a5"></path><path d="M180 2332.7L369 2500L433 2273.7Z" fill="#08114a" stroke="#08114a"></path><path d="M180 2332.7L433 2273.7L261 2126.4Z" fill="#2c19a5" stroke="#2c19a5"></path><path d="M3767 2081.4L3849 1915.1L3614 1905.1Z" fill="#211a93" stroke="#211a93"></path><path d="M4000 620.9L3805 389.6L3799 589.9Z" fill="#10176e" stroke="#10176e"></path><path d="M3799 589.9L3805 389.6L3647 339.6Z" fill="#131877" stroke="#131877"></path><path d="M245 0L174 168.3L362 135.3Z" fill="#1c1989" stroke="#1c1989"></path><path d="M4000 1365.2L3796 1332.2L3806 1490.5Z" fill="#0a145c" stroke="#0a145c"></path><path d="M3854 1103.8L4000 988.5L3753 912.5Z" fill="#2c19a5" stroke="#2c19a5"></path><path d="M4000 1556.5L4000 1365.2L3806 1490.5Z" fill="#10176e" stroke="#10176e"></path><path d="M4000 1145.8L4000 988.5L3854 1103.8Z" fill="#26199c" stroke="#26199c"></path><path d="M0 1779.8L0 1948.1L252 1865.1Z" fill="#211a93" stroke="#211a93"></path><path d="M387 0L245 0L362 135.3Z" fill="#091353" stroke="#091353"></path><path d="M0 2101.4L180 2332.7L261 2126.4Z" fill="#0a145c" stroke="#0a145c"></path><path d="M4000 1675.8L3806 1490.5L3744 1688.8Z" fill="#211a93" stroke="#211a93"></path><path d="M4000 1928.1L4000 1675.8L3849 1915.1Z" fill="#091353" stroke="#091353"></path><path d="M3619 2353.7L3788 2275.7L3599 2061.4Z" fill="#26199c" stroke="#26199c"></path><path d="M3361 2500L3591 2500L3407 2309.7Z" fill="#0a145c" stroke="#0a145c"></path><path d="M4000 988.5L4000 802.2L3753 912.5Z" fill="#10176e" stroke="#10176e"></path><path d="M3849 1915.1L4000 1675.8L3744 1688.8Z" fill="#131877" stroke="#131877"></path><path d="M4000 1928.1L3849 1915.1L4000 2105.4Z" fill="#211a93" stroke="#211a93"></path><path d="M0 133.3L0 352.6L174 168.3Z" fill="#131877" stroke="#131877"></path><path d="M174 168.3L0 352.6L222 392.6Z" fill="#091353" stroke="#091353"></path><path d="M0 2500L244 2500L180 2332.7Z" fill="#10176e" stroke="#10176e"></path><path d="M180 2332.7L244 2500L369 2500Z" fill="#211a93" stroke="#211a93"></path><path d="M3785 2500L3788 2275.7L3619 2353.7Z" fill="#091353" stroke="#091353"></path><path d="M0 1948.1L0 2101.4L261 2126.4Z" fill="#0a145c" stroke="#0a145c"></path><path d="M4000 802.2L4000 620.9L3806 774.2Z" fill="#1c1989" stroke="#1c1989"></path><path d="M3805 389.6L3807 143.3L3647 339.6Z" fill="#08114a" stroke="#08114a"></path><path d="M4000 328.6L3807 143.3L3805 389.6Z" fill="#131877" stroke="#131877"></path><path d="M4000 2105.4L3849 1915.1L3767 2081.4Z" fill="#26199c" stroke="#26199c"></path><path d="M4000 0L3794 0L3807 143.3Z" fill="#131877" stroke="#131877"></path><path d="M3807 143.3L3794 0L3539 0Z" fill="#0d1665" stroke="#0d1665"></path><path d="M0 0L0 133.3L174 168.3Z" fill="#1c1989" stroke="#1c1989"></path><path d="M4000 620.9L4000 328.6L3805 389.6Z" fill="#091353" stroke="#091353"></path><path d="M4000 2349.7L4000 2105.4L3788 2275.7Z" fill="#0d1665" stroke="#0d1665"></path><path d="M3788 2275.7L4000 2105.4L3767 2081.4Z" fill="#10176e" stroke="#10176e"></path><path d="M3591 2500L3785 2500L3619 2353.7Z" fill="#26199c" stroke="#26199c"></path><path d="M0 2101.4L0 2350.7L180 2332.7Z" fill="#2c19a5" stroke="#2c19a5"></path><path d="M245 0L0 0L174 168.3Z" fill="#2c19a5" stroke="#2c19a5"></path><path d="M4000 328.6L4000 193.3L3807 143.3Z" fill="#0d1665" stroke="#0d1665"></path><path d="M0 2350.7L0 2500L180 2332.7Z" fill="#171980" stroke="#171980"></path><path d="M3785 2500L4000 2349.7L3788 2275.7Z" fill="#0d1665" stroke="#0d1665"></path><path d="M4000 193.3L4000 0L3807 143.3Z" fill="#0a145c" stroke="#0a145c"></path><path d="M3785 2500L4000 2500L4000 2349.7Z" fill="#2c19a5" stroke="#2c19a5"></path></g></svg>